 http://s18.postimage.org/s0gp1xfq1/image.png


24/7 in Love [2012] DVDRip EP


info:


Imdb                             : http://www.imdb.com/title/tt2526668/
Genres                           : Comedy | Drama | Romance 
Director                         : Mae Czarina Cruz, John-D Lazatin
Audio Language                   : Filipino | Tagalog
Country                          : Philippines


General
Complete name                            : 24/7 in Love [2012] DVDRip EP.com.avi
Format                                   : AVI
Format/Info                              : Audio Video Interleave
File size                                : 1.04 GiB
Duration                                 : 2h 10mn
Overall bit rate                         : 1 142 Kbps
Writing application                      : VirtualDubMod

Video
ID                                       : 0
Format                                   : AVC
Format/Info                              : Advanced Video Codec
Format profile                           : High@L3.1
Format settings, CABAC                   : Yes
Format settings, ReFrames                : 3 frames
Codec ID                                 : H264
Duration                                 : 2h 10mn
Bit rate                                 : 941 Kbps
Width                                    : 1 248 pixels
Height                                   : 720 pixels
Display aspect ratio                     : 16:9
Frame rate                               : 25.000 fps
Color space                              : YUV
Chroma subsampling                       : 4:2:0
Bit depth                                : 8 bits
Scan type                                : Progressive
Bits/(Pixel*Frame)                       : 0.042
Stream size                              : 876 MiB (82%)
Writing library                          : x264 core 119 r2106kMod 07efeb4
Encoding settings                        : cabac=1 / ref=3 / deblock=1:0:0

Audio
ID                                       : 1
Format                                   : MPEG Audio
Format version                           : Version 1
Format profile                           : Layer 3
Codec ID                                 : 55
Codec ID/Hint                            : MP3
Duration                                 : 2h 10mn
Bit rate mode                            : Constant
Bit rate                                 : 192 Kbps
Channel(s)                               : 2 channels
Sampling rate                            : 44.1 KHz
Compression mode                         : Lossy
Stream size                              : 179 MiB (17%)
Alignment                                : Split accross interleaves
Interleave, duration                     : 40 ms (1.00 video frame)
Interleave, preload duration             : 500 ms
Writing library                          : LAMELAME_MAJOR_VERSI




cast:


Bea Alonzo as Belle Gonzales
Gerald Anderson as Alvin Alvarado
Kathryn Bernardo as Jane Dela Cuesta
Kim Chiu as Patty Escalona
John Lloyd Cruz as Elvis Dela Cuesta
Zaijian Jaranilla as Jomar Ronquillo
Xyriel Manabat as Ayie Manrique
Zanjoe Marudo as Butch Vinzon
Sam Milby as Charles Padilla
Diether Ocampo as Ken Ramirez
Daniel Padilla as Billy Fernandez
Angelica Panganiban as Verna Francisco
Piolo Pascual as Pipoy Ronquillo
Pokwang as Virgie Matimtiman
Maja Salvador as Barbara Alcaraz

Minor

Jason Francisco
Jayson Gainza
Joem Bascon
John Lapus
Joseph Marco
Coco Martin
Jane Oineza
Maricar Reyes
Kaye Abad



plot:

Jane (Kathryn Bernardo), a die-hard fan, wants to win tickets to Billy Fernandez's (Daniel Padilla) concert. 

To do this she must answer the question, "What would you do if it was the end of the world?" In search for this 

answer she meets different people with different love stories: a 40-year old virgin named Virgie (Pokwang) who meets 

a gigolo named Charles (Sam Milby); a hopeless romantic secretary, Barbara (Maja Salvador) who is helping her boss, 

Ken (Diether Ocampo) with "personal issues"; Verna (Angelica Panganiban) who falls in love with a waiter named Elvis 

(John Lloyd Cruz) in Vietnam; Belle (Bea Alonzo) who is in love with her gay best-friend, Butch (Zanjoe Marudo), 

an active-executive; Jomar (Zaijan Jaranilla) who is trying to court Ayie(Xyriel Manabat) with the help of a 35 year old 

mentally-challenged man named Pipoy (Piolo Pascual); Patty (Kim Chiu) who traces her first love, Alvin (Gerald Anderson) 

to become a model for her company.



ScreenShot:
 
http://s18.postimage.org/en8ylkli1/image.jpg 
http://s18.postimage.org/41p39kf6h/image.jpg 
http://s18.postimage.org/xuw3i63tl/image.jpg 
http://s18.postimage.org/yyg7u4ogp/image.jpg 
http://s18.postimage.org/wieega6e1/image.jpg 
http://s18.postimage.org/r89fozm55/image.jpg 
http://s18.postimage.org/tqv4po7vd/image.jpg